<?xml version="1.0" encoding="utf-8"?><svg xmlns="http://www.w3.org/2000/svg" xmlns:xlink="http://www.w3.org/1999/xlink"><symbol viewBox="0 0 348.1 348.1" id="call-answer" xmlns="http://www.w3.org/2000/svg"><path d="M340.3 275.1l-53.8-53.8c-10.7-10.7-28.4-10.3-39.5.7l-27.1 27.1c-1.7-.9-3.5-1.9-5.3-3-17.1-9.5-40.5-22.5-65.1-47.1-24.7-24.7-37.7-48.1-47.2-65.3-1-1.8-2-3.6-2.9-5.2l18.2-18.1 8.9-8.9c11.1-11.1 11.4-28.8.7-39.5L73.4 8.2C62.7-2.5 45-2.2 33.9 8.9L18.7 24.2l.4.4c-5.1 6.5-9.3 14-12.5 22-2.9 7.7-4.7 15-5.6 22.3-7 58.9 19.9 112.7 92.9 185.6 100.9 100.9 182.2 93.2 185.7 92.9 7.6-.9 15-2.7 22.4-5.6 8-3.1 15.5-7.4 21.9-12.4l.3.3 15.3-15c11.1-11.2 11.5-28.9.8-39.6z"/></symbol><symbol viewBox="0 0 344.96 344.96" id="check" xmlns="http://www.w3.org/2000/svg"><g data-name="Слой 2"><path d="M321.85 86.24l-40-23.11-23.1-40H212.5L172.48 0l-40 23.11H86.24l-23.11 40-40 23.1v46.21L0 172.48l23.11 40v46.21l40 23.11 23.11 40h46.21l40 23.1 40-23.11h46.21l23.11-40 40-23.11V212.5l23.11-40-23.11-40V86.24zM156.91 243.07a16.79 16.79 0 0 1-23.34 0l-50.45-50.44a16.19 16.19 0 0 1 0-22.89l13.35-13.35a16.19 16.19 0 0 1 22.89 0l25.87 25.87 80.34-80.35a16.19 16.19 0 0 1 22.89 0l13.35 13.35a16.19 16.19 0 0 1 0 22.89z" data-name="Capa 1"/></g></symbol><symbol viewBox="0 0 448.8 448.8" id="check-symbol" xmlns="http://www.w3.org/2000/svg"><path d="M142.8 323.85L35.7 216.75 0 252.45l142.8 142.8 306-306-35.7-35.7z"/></symbol><symbol viewBox="0 0 47.971 47.971" id="close" xmlns="http://www.w3.org/2000/svg"><path d="M28.228 23.986L47.092 5.122a2.998 2.998 0 0 0 0-4.242 2.998 2.998 0 0 0-4.242 0L23.986 19.744 5.121.88a2.998 2.998 0 0 0-4.242 0 2.998 2.998 0 0 0 0 4.242l18.865 18.864L.879 42.85a2.998 2.998 0 1 0 4.242 4.241l18.865-18.864L42.85 47.091c.586.586 1.354.879 2.121.879s1.535-.293 2.121-.879a2.998 2.998 0 0 0 0-4.242L28.228 23.986z"/></symbol><symbol viewBox="0 0 512 512" id="instagram" xmlns="http://www.w3.org/2000/svg"><path d="M363.3 0H148.7C66.7 0 0 66.7 0 148.7v214.5C0 445.3 66.7 512 148.7 512h214.5c82 0 148.7-66.7 148.7-148.7V148.7C512 66.7 445.3 0 363.3 0zM472 363.3c0 60-48.8 108.7-108.7 108.7H148.7C88.8 472 40 423.2 40 363.3V148.7C40 88.8 88.8 40 148.7 40h214.5c60 0 108.7 48.8 108.7 108.7v214.6z"/><path d="M256 118c-76.1 0-138 61.9-138 138s61.9 138 138 138 138-61.9 138-138-61.9-138-138-138zm0 236c-54 0-98-44-98-98s44-98 98-98 98 44 98 98-44 98-98 98z"/><circle cx="396" cy="116" r="20"/></symbol><symbol viewBox="0 0 31.5 31.5" id="left-down" xmlns="http://www.w3.org/2000/svg"><path d="M5 21.2c-.4-.4-.4-1.1 0-1.6.4-.4 1.1-.4 1.6 0l8 8V1.1c0-.6.5-1.1 1.1-1.1s1.1.5 1.1 1.1v26.6l8-8c.4-.4 1.2-.4 1.6 0 .4.4.4 1.1 0 1.6l-10 10c-.4.4-1.1.4-1.6 0L5 21.2z"/></symbol><symbol viewBox="0 0 344.339 344.339" id="list-menu" xmlns="http://www.w3.org/2000/svg"><path d="M0 46.06h344.339v29.52H0zm0 110.446h344.339v29.52H0zm0 112.242h344.339v29.531H0z"/></symbol><symbol viewBox="0 0 512 512" id="mnu-1" xmlns="http://www.w3.org/2000/svg"><path d="M505.9 217.4c5.5-5.4 7.5-13.3 5.1-20.6-2.4-7.3-8.6-12.6-16.2-13.7L342.4 161c-.1 0-.2-.1-.3-.2L274 22.7c-3.4-6.9-10.3-11.2-18-11.2-7.7 0-14.6 4.3-18 11.2l-68.1 138.1c-.1.1-.2.2-.3.2L17.2 183.1c-7.6 1.1-13.8 6.3-16.2 13.7-2.4 7.3-.4 15.2 5.1 20.6l110.2 107.5c.1.1.1.2.1.3l-26 151.7c-2.1 12.1 7.5 23.5 19.8 23.5 3.2 0 6.4-.8 9.4-2.3l136.3-71.6c.1-.1.2-.1.3 0l136.3 71.6c6.8 3.6 14.9 3 21.2-1.5 6.2-4.5 9.3-12.1 8-19.6l-26-151.7c0-.1 0-.2.1-.3l110.1-107.6zM376.1 328.5l26 151.7c0 .2 0 .2-.1.4-.2.1-.2.1-.4 0L265.3 409c-5.9-3.1-12.8-3.1-18.7 0l-136.3 71.6c-.1.1-.2.1-.4 0s-.2-.2-.1-.4l26-151.7c1.1-6.5-1-13.2-5.8-17.8L19.8 203.3c-.1-.1-.2-.2-.1-.4s.1-.2.3-.3l152.4-22.1c6.5-1 12.2-5.1 15.1-11l68.1-138.1c.1-.1.1-.2.3-.2.2 0 .3.1.3.2l68.1 138.1c2.9 5.9 8.6 10 15.1 11l152.4 22.1c.2 0 .2 0 .3.3.1.2 0 .3-.1.4L381.9 310.8c-4.7 4.6-6.9 11.2-5.8 17.7z"/></symbol><symbol viewBox="0 0 512 512" id="mnu-2" xmlns="http://www.w3.org/2000/svg"><path d="M413.5 290.1c0 4.7-3.8 8.5-8.5 8.5s-8.5-3.8-8.5-8.5 3.8-8.5 8.5-8.5 8.5 3.8 8.5 8.5zm76.8 51.2c0 4.7-3.8 8.5-8.5 8.5s-8.5-3.8-8.5-8.5 3.8-8.5 8.5-8.5 8.5 3.8 8.5 8.5zm0-34.1c0 4.7-3.8 8.5-8.5 8.5s-8.5-3.8-8.5-8.5 3.8-8.5 8.5-8.5 8.5 3.8 8.5 8.5zm0-34.1c0 4.7-3.8 8.5-8.5 8.5s-8.5-3.8-8.5-8.5 3.8-8.5 8.5-8.5c4.7-.1 8.5 3.8 8.5 8.5zm0-34.2c0 4.7-3.8 8.5-8.5 8.5s-8.5-3.8-8.5-8.5 3.8-8.5 8.5-8.5 8.5 3.8 8.5 8.5zm-25.6 85.4c0 4.7-3.8 8.5-8.5 8.5s-8.5-3.8-8.5-8.5 3.8-8.5 8.5-8.5c4.7-.1 8.5 3.8 8.5 8.5zm0-34.2c0 4.7-3.8 8.5-8.5 8.5s-8.5-3.8-8.5-8.5 3.8-8.5 8.5-8.5 8.5 3.8 8.5 8.5zm0-34.1c0 4.7-3.8 8.5-8.5 8.5s-8.5-3.8-8.5-8.5 3.8-8.5 8.5-8.5 8.5 3.8 8.5 8.5zm-25.6 51.2c0 4.7-3.8 8.5-8.5 8.5s-8.5-3.8-8.5-8.5 3.8-8.5 8.5-8.5 8.5 3.8 8.5 8.5zm0-34.1c0 4.7-3.8 8.5-8.5 8.5s-8.5-3.8-8.5-8.5 3.8-8.5 8.5-8.5c4.7-.1 8.5 3.8 8.5 8.5zm-410 31.5c5 3.1 11.3 3.4 16.6.7.4-.2.9-.5 1.3-.8L66.5 290h48.4v9.4c-.3 4.6-4.3 8-8.9 7.6-14 .3-25.2 11.6-25.2 25.6v17.1c0 14.1 11.5 25.6 25.6 25.6h1.9L97 443.7h-4.2c-4.5 0-8.9 1.8-12.1 5l-12.1 12.1c-3.2 3.2-5 7.5-5 12.1V495c0 9.4 7.6 17.1 17.1 17.1h153.6c9.4 0 17.1-7.6 17.1-17.1v-20.3c0-6.5-3.6-12.4-9.4-15.3l-27.6-13.8c-2-.9-4.1-1.5-6.2-1.6l11.5-69.8c8.8-3.1 14.7-11.5 14.7-20.8v-6.8c0-2.8 2.3-5.1 5.1-5.1h11.9v59.7c0 2.3.9 4.4 2.5 6l42.7 42.7c3.3 3.2 8.7 3.2 12-.1 3.3-3.3 3.3-8.6.1-12l-40.2-40.2v-56.2h42.7c6.7 0 12.7-3.9 15.5-10l22.8-5.7c7.6-1.9 12.9-8.7 12.9-16.6v-10.4h17.1c4.7 0 8.5-3.8 8.5-8.5s-3.8-8.5-8.5-8.5h-17.1v-10.4c0-7.8-5.3-14.7-12.9-16.6l-22.8-5.7c-2.8-6.1-8.8-10-15.5-10h-18.3c-3.9-15-17.4-25.6-32.9-25.6-6.1 0-12.1 1.7-17.4 4.9l-14-33.8c16.8-11.3 23.3-33 15.5-51.7l-36.5-88.2c9.3-8.3 11.2-22.1 4.5-32.6-6.6-10.5-19.9-14.7-31.4-10L62.5 51c-11.3 4.7-17.7 16.7-15.3 28.7s12.9 20.6 25.1 20.6c.4 0 .9-.1 1.3-.1l36.5 88.2c7.7 18.7 27.6 29.4 47.5 25.6l10.4 25.2H66.5L47 224.5c-.4-.3-.8-.6-1.3-.8-5.3-2.6-11.6-2.4-16.6.7-5 3.1-8.1 8.6-8.1 14.5v51.2c0 5.9 3.1 11.4 8.1 14.5zm96.4 70.9h76.6l-11.3 68.3h-76.6l11.3-68.3zm108.8 99.1v20.3H80.7v-22.1l12.1-12.1h113.9l27.6 13.9zm111-165.5l-17.1 4.3V267l17.1 4.3v37.8zm-34.2 15.2h-42.7v-43.9c11.9-3.1 21.3-12.4 24.4-24.4h18.3v68.3zm-51.2-93.9c9.4 0 17.1 7.6 17.1 17.1 0 9.4-7.6 17.1-17.1 17.1-9.4 0-17.1-7.6-17.1-17.1.1-9.5 7.7-17.1 17.1-17.1zM64.3 77.9c-.9-2.1-.9-4.4 0-6.5.9-2.1 2.5-3.7 4.6-4.6l118.3-49c4.3-1.8 9.3.3 11.1 4.6s-.2 9.3-4.5 11.1l-118.3 49c-4.4 1.8-9.4-.3-11.2-4.6zm61.5 103.8L89.9 95l51.2-21.2 51.2-21.2 35.9 86.7c5.4 13-.8 28-13.8 33.4l-55.2 22.9c-13.1 5.3-28-.9-33.4-13.9zm47.8 26.4l39.4-16.3 16.7 40.2c-1.2 2.2-2.1 4.6-2.7 7h-40.6l-12.8-30.9zM149 256h78c3.1 11.9 12.4 21.3 24.4 24.4v43.9h-11.9c-12.2 0-22.2 9.9-22.2 22.2v6.8c0 2.8-2.3 5.1-5.1 5.1H106.3c-4.7 0-8.5-3.8-8.5-8.5v-17.1c0-4.7 3.8-8.4 8.4-8.5 6.7.1 13.2-2.4 18-7 4.8-4.6 7.6-11 7.7-17.7V256H149zm-34.1 0v17.1H72.2V256h42.7zm-76.8-16.9l17.1 12.7v25.5L38.1 290v-50.9z"/><path d="M157.3 168.6l-26.1-63.1c-1.8-4.3-6.8-6.4-11.1-4.6a8.5 8.5 0 0 0-4.6 11.1l26.1 63.1c1.2 2.8 3.7 4.8 6.8 5.2 3 .4 6.1-.8 7.9-3.3s2.2-5.5 1-8.4z"/></symbol><symbol viewBox="0 0 511 511" id="mnu-3" xmlns="http://www.w3.org/2000/svg"><path d="M160 307.5h133.5c14.2 0 27.5-7.6 34.8-19.7l14.5-24.2c2.3-3.8 1-8.7-2.7-11-3.8-2.3-8.7-1-11 2.7l-14.5 24.2c-4.4 7.4-12.5 11.9-21.1 11.9H160c-4.4 0-8 3.6-8 8s3.6 8.1 8 8.1z"/><path d="M504 323.6v-24.1c0-48.5-39.5-88-88-88h-44.2c-12.4-9.7-62.9-48-91.8-48h-54c-11 0-21.9 1.7-32.4 4.9-.2.1-.4.1-.6.2l-73.7 29.7c-11.1 3.4-22.6 5.2-34.2 5.2H58.7c-.4-.8-.9-1.5-1.5-2.2l-7.8-7.8c8.6-3.6 14.6-12.1 14.6-22v-8c0-4.4-3.6-8-8-8H8c-4.4 0-8 3.6-8 8v8c0 13.3 10.8 24 24 24h4.6l8 8H30c-12.1 0-22 9.9-22 22v66c0 18.5 13.3 34.1 33.9 39.7 10.1 14.7 27 24.3 46.1 24.3 15.2 0 29-6.1 39.1-16h249.7c10.1 9.9 23.9 16 39.1 16s29-6.1 39.1-16h48c4.4 0 8-3.6 8-8 0-4.1-3.1-7.4-7-7.9zM16 171.5h32c0 4.4-3.6 8-8 8H24c-4.4 0-8-3.6-8-8zm340.3 48.3c-3.6 2.5-6.2 5.2-8.1 7.3l-151-14.5c7.1-12.7 21.7-33.1 42.8-33.1h40c18.9 0 56.3 25.2 76.3 40.3zM24 291.5v-66c0-3.3 2.7-6 6-6h55.2c13.3 0 26.5-2 39.2-6 .2-.1.4-.1.6-.2l73.4-29.6c-2 2.1-4 4.4-5.9 6.9-9.8 12.8-14.8 25.4-15 26-.9 2.3-.7 5 .6 7.1 1.3 2.1 3.6 3.5 6.1 3.8l167 16h.8c2.9 0 5.6-1.5 6.9-4.2.6-.9 7.4-11.9 25-11.9h32c39.7 0 72 32.3 72 72v24h-21.4c3.5-7.3 5.4-15.4 5.4-24 0-30.9-25.1-56-56-56s-56 25.1-56 56c0 8.6 1.9 16.7 5.4 24H138.6c3.5-7.3 5.4-15.4 5.4-24 0-30.9-25.1-56-56-56s-56 25.1-56 56c0 3.3.3 6.6.9 9.7-5.7-4.5-8.9-10.7-8.9-17.6zm24 8c0-22.1 17.9-40 40-40s40 17.9 40 40-17.9 40-40 40-40-17.9-40-40zm368 40c-22.1 0-40-17.9-40-40s17.9-40 40-40 40 17.9 40 40-17.9 40-40 40z"/><path d="M112 291.5c-4.4 0-8 3.6-8 8 0 8.8-7.2 16-16 16s-16-7.2-16-16 7.2-16 16-16c4.4 0 8-3.6 8-8s-3.6-8-8-8c-17.6 0-32 14.4-32 32s14.4 32 32 32 32-14.4 32-32c0-4.4-3.6-8-8-8zm328 0c-4.4 0-8 3.6-8 8 0 8.8-7.2 16-16 16s-16-7.2-16-16 7.2-16 16-16c4.4 0 8-3.6 8-8s-3.6-8-8-8c-17.6 0-32 14.4-32 32s14.4 32 32 32 32-14.4 32-32c0-4.4-3.6-8-8-8z"/></symbol><symbol viewBox="0 0 489.2 489.2" id="mnu-4" xmlns="http://www.w3.org/2000/svg"><path d="M482.8 152.5L249.7 37.8c-3.2-1.6-7-1.6-10.2 0L6.4 152.5c-3.9 1.9-6.4 5.9-6.4 10.3v267.8c0 12.2 9.9 22.1 22.1 22.1h445.1c12.2 0 22.1-9.9 22.1-22.1V162.8c-.1-4.4-2.6-8.4-6.5-10.3zm-97.7 152.6h-281v-39.5h281v39.5zm-281 23h281v39.5h-281v-39.5zm281-85.5h-281v-41h281v41zm-281 148h281v39h-281v-39zm362.1 39h-58.1V190.1c0-6.4-5.1-11.5-11.5-11.5h-304c-6.4 0-11.5 5.1-11.5 11.5v239.5H23V170L244.6 61l221.6 109v259.6z"/></symbol></svg>