<?xml version="1.0" encoding="utf-8"?>
<!-- Generator: Adobe Illustrator 23.0.2, SVG Export Plug-In . SVG Version: 6.00 Build 0)  -->
<svg version="1.1" id="Layer_1" xmlns="http://www.w3.org/2000/svg" xmlns:xlink="http://www.w3.org/1999/xlink" x="0px" y="0px"
	 viewBox="0 0 512 512" style="enable-background:new 0 0 512 512;" xml:space="preserve">
<g>
	<g>
		<path d="M505.9,217.4c5.5-5.4,7.5-13.3,5.1-20.6c-2.4-7.3-8.6-12.6-16.2-13.7L342.4,161c-0.1,0-0.2-0.1-0.3-0.2L274,22.7
			c-3.4-6.9-10.3-11.2-18-11.2c-7.7,0-14.6,4.3-18,11.2l-68.1,138.1c-0.1,0.1-0.2,0.2-0.3,0.2L17.2,183.1
			c-7.6,1.1-13.8,6.3-16.2,13.7c-2.4,7.3-0.4,15.2,5.1,20.6l110.2,107.5c0.1,0.1,0.1,0.2,0.1,0.3l-26,151.7
			c-2.1,12.1,7.5,23.5,19.8,23.5c3.2,0,6.4-0.8,9.4-2.3l136.3-71.6c0.1-0.1,0.2-0.1,0.3,0l136.3,71.6c6.8,3.6,14.9,3,21.2-1.5
			c6.2-4.5,9.3-12.1,8-19.6l-26-151.7c0-0.1,0-0.2,0.1-0.3L505.9,217.4z M376.1,328.5l26,151.7c0,0.2,0,0.2-0.1,0.4
			c-0.2,0.1-0.2,0.1-0.4,0L265.3,409c-5.9-3.1-12.8-3.1-18.7,0l-136.3,71.6c-0.1,0.1-0.2,0.1-0.4,0c-0.2-0.1-0.2-0.2-0.1-0.4
			l26-151.7c1.1-6.5-1-13.2-5.8-17.8L19.8,203.3c-0.1-0.1-0.2-0.2-0.1-0.4c0.1-0.2,0.1-0.2,0.3-0.3l152.4-22.1
			c6.5-1,12.2-5.1,15.1-11l68.1-138.1c0.1-0.1,0.1-0.2,0.3-0.2c0.2,0,0.3,0.1,0.3,0.2l68.1,138.1c2.9,5.9,8.6,10,15.1,11l152.4,22.1
			c0.2,0,0.2,0,0.3,0.3c0.1,0.2,0,0.3-0.1,0.4L381.9,310.8C377.2,315.4,375,322,376.1,328.5z"/>
	</g>
</g>
</svg>
