<?xml version="1.0" encoding="utf-8"?>
<!-- Generator: Adobe Illustrator 23.0.2, SVG Export Plug-In . SVG Version: 6.00 Build 0)  -->
<svg version="1.1" id="Capa_1" xmlns="http://www.w3.org/2000/svg" xmlns:xlink="http://www.w3.org/1999/xlink" x="0px" y="0px"
	 viewBox="0 0 511 511" style="enable-background:new 0 0 511 511;" xml:space="preserve">
<g>
	<path d="M160,307.5h133.5c14.2,0,27.5-7.6,34.8-19.7l14.5-24.2c2.3-3.8,1-8.7-2.7-11c-3.8-2.3-8.7-1-11,2.7l-14.5,24.2
		c-4.4,7.4-12.5,11.9-21.1,11.9H160c-4.4,0-8,3.6-8,8S155.6,307.5,160,307.5z"/>
	<path d="M504,323.6v-24.1c0-48.5-39.5-88-88-88h-44.2c-12.4-9.7-62.9-48-91.8-48h-54c-11,0-21.9,1.7-32.4,4.9
		c-0.2,0.1-0.4,0.1-0.6,0.2l-73.7,29.7c-11.1,3.4-22.6,5.2-34.2,5.2H58.7c-0.4-0.8-0.9-1.5-1.5-2.2l-7.8-7.8
		C58,189.9,64,181.4,64,171.5v-8c0-4.4-3.6-8-8-8H8c-4.4,0-8,3.6-8,8v8c0,13.3,10.8,24,24,24h4.6l8,8H30c-12.1,0-22,9.9-22,22v66
		c0,18.5,13.3,34.1,33.9,39.7c10.1,14.7,27,24.3,46.1,24.3c15.2,0,29-6.1,39.1-16h249.7c10.1,9.9,23.9,16,39.1,16s29-6.1,39.1-16
		H503c4.4,0,8-3.6,8-8C511,327.4,507.9,324.1,504,323.6z M16,171.5h32c0,4.4-3.6,8-8,8H24C19.6,179.5,16,175.9,16,171.5z
		 M356.3,219.8c-3.6,2.5-6.2,5.2-8.1,7.3l-151-14.5c7.1-12.7,21.7-33.1,42.8-33.1h40C298.9,179.5,336.3,204.7,356.3,219.8z
		 M24,291.5v-66c0-3.3,2.7-6,6-6h55.2c13.3,0,26.5-2,39.2-6c0.2-0.1,0.4-0.1,0.6-0.2l73.4-29.6c-2,2.1-4,4.4-5.9,6.9
		c-9.8,12.8-14.8,25.4-15,26c-0.9,2.3-0.7,5,0.6,7.1c1.3,2.1,3.6,3.5,6.1,3.8l167,16c0.3,0,0.6,0,0.8,0c2.9,0,5.6-1.5,6.9-4.2
		c0.6-0.9,7.4-11.9,25-11.9h32c39.7,0,72,32.3,72,72v24h-21.4c3.5-7.3,5.4-15.4,5.4-24c0-30.9-25.1-56-56-56s-56,25.1-56,56
		c0,8.6,1.9,16.7,5.4,24H138.6c3.5-7.3,5.4-15.4,5.4-24c0-30.9-25.1-56-56-56s-56,25.1-56,56c0,3.3,0.3,6.6,0.9,9.7
		C27.2,304.6,24,298.4,24,291.5z M48,299.5c0-22.1,17.9-40,40-40s40,17.9,40,40s-17.9,40-40,40S48,321.6,48,299.5z M416,339.5
		c-22.1,0-40-17.9-40-40s17.9-40,40-40s40,17.9,40,40S438.1,339.5,416,339.5z"/>
	<path d="M112,291.5c-4.4,0-8,3.6-8,8c0,8.8-7.2,16-16,16s-16-7.2-16-16s7.2-16,16-16c4.4,0,8-3.6,8-8s-3.6-8-8-8
		c-17.6,0-32,14.4-32,32s14.4,32,32,32s32-14.4,32-32C120,295.1,116.4,291.5,112,291.5z"/>
	<path d="M440,291.5c-4.4,0-8,3.6-8,8c0,8.8-7.2,16-16,16s-16-7.2-16-16s7.2-16,16-16c4.4,0,8-3.6,8-8s-3.6-8-8-8
		c-17.6,0-32,14.4-32,32s14.4,32,32,32s32-14.4,32-32C448,295.1,444.4,291.5,440,291.5z"/>
</g>
</svg>
