<svg xmlns="http://www.w3.org/2000/svg" viewBox="0 0 487 432.16"><defs><style>.cls-1{fill:#bd9777;}</style></defs><title>korona</title><g id="Слой_2" data-name="Слой 2"><g id="Слой_1-2" data-name="Слой 1"><path class="cls-1" d="M0,228.16v-12a33.61,33.61,0,0,0,1.65-3.49c8.39-24.12,20.84-45.59,39.87-63,7.11-6.51,14.46-9.05,23.58-5,7.87,3.48,15.81,6.81,23.81,10.24.11-.08.49-.23.6-.49.93-2.14,1.91-4.25,2.69-6.44,10.59-29.82,30.68-51.73,56.77-68.8,8.94-5.86,17.54-5.85,26.78-.88a150.66,150.66,0,0,1,48,40c5.73,7.32,10.67,15.28,15.89,23,2.36,3.48,4.5,3.54,6.79,0,2.44-3.78,5-7.5,7.41-11.27a150.53,150.53,0,0,1,57.44-52.09c7.36-3.85,14.82-5.16,22.35-.66,25.06,15,44.82,34.85,56.61,62,2.31,5.3,4.44,10.67,6.5,15.63,9.35-3.77,18.26-7.34,27.15-11,6.81-2.79,12.62-.94,18,3.58A127.81,127.81,0,0,1,466.25,175C475.5,189,482,204.25,487,220.16v5c-6,8.58-11.88,17.2-17.93,25.71s-11.5,17.41-10.07,28c1.05,7.8-1.87,11.78-8.05,15.07a51.53,51.53,0,0,0-8.1,5.82c-10.09,8.24-16.58,18.82-20.48,31.71,2.19.6,4.41.64,5.87,1.72,2.65,2,6.45,4.27,6.89,6.92,1,6.06.33,12.43.33,18.6H50.33c0-5.33,0-10.3,0-15.27.06-5.86,2.29-8.74,8-10.51l5.38-1.65c-4.73-15.14-13-26.91-25.66-35.42-2.49-1.67-4.93-3.41-7.46-5-3-1.89-4.23-4.27-3.64-8a34.13,34.13,0,0,0-5.67-25.25C14.48,247.64,7.13,238,0,228.16ZM216.51,332.49c0-10.33.24-20,0-29.59-.55-18.39-6.15-34.35-22.6-44.8-3.44-2.18-1.93-4.37-.19-7.06,5-7.64,10.71-15,14-23.39,17-42.67-7.43-85-35.15-103.42-4.62-3.08-8.33-2.89-12.65.36-40.9,30.8-47.4,93.21-4.78,127.54,3.45,2.79,3.78,5.09,1.62,8.83-12.51,21.59-13.91,44.35-6.87,68,.82,2.75,2.19,3.67,5,3.6,6.49-.15,13,0,19.48,0Zm53,0c21.47,0,42.1,0,62.72-.13a5.15,5.15,0,0,0,3.66-3c7.45-23.51,6-46.32-6.27-68-2.35-4.14-2.06-6.53,1.73-9.6,42.42-34.49,35.44-97.15-5.56-127.49-4.32-3.2-7.89-2.93-12.24-.09C300.24,133,290.87,145,283.23,158.75a80.7,80.7,0,0,0,8.18,91.18c4.44,5.38,4.38,5.7-1.52,9.91a44.51,44.51,0,0,0-17.19,23.83C267.86,299.51,270.3,315.69,269.55,332.48Zm98.47,0c7.3,0,13.93.12,20.55-.12,1.06,0,2.46-1.49,3-2.62,3.73-7.61,6.81-15.57,11-22.93q20.18-35.86,41.06-71.31c2.56-4.37,4-8.62,2.11-13.19-4.2-10.09-8.06-20.44-13.5-29.86-7-12.09-8.76-12.14-21.58-6.33-6.92,3.14-13.22,6.82-15,15.35-1.21,5.84-3.81,11.38-5.15,17.2-3.62,15.72-5.67,31.44,1.29,47,.7,1.56-.24,4.45-1.34,6.11-3.84,5.8-8.64,11-12.06,17C370.85,302,369.92,316.93,368,332.45Zm-250.1,0c-1.85-22.85-5.48-44.19-22.32-60.61-2.29-2.24-2.18-4.43-1.11-7.21a55.65,55.65,0,0,0,3.58-11.82c2.5-17.29-2-33.59-6.95-50-2.66-8.82-8.16-13.7-16-16.94-2.3-.95-4.72-1.64-7-2.57-4.33-1.74-7.91-1-10.21,3.24-5.24,9.59-10.64,19.11-15.43,28.93-4.31,8.84-3.77,17.39,3.7,24.71a16.22,16.22,0,0,1,2.2,3.32c16.79,28,33.33,56.05,46.22,86.11A5,5,0,0,0,98,332.34C104.45,332.61,110.91,332.47,117.92,332.47Zm111.25-80,13.88,27c4.17-8.07,8.86-17.16,13.93-27A54,54,0,0,1,245.28,228c-.21-1.07-1.42-1.94-2.17-2.9-.76.94-2,1.78-2.2,2.83A54.41,54.41,0,0,1,229.17,252.43Z"/><path class="cls-1" d="M58,432.16c-8.39-3.77-7.66-11-6.89-18.63h385c1,7.59,1.55,14.84-7.09,18.63Z"/><path class="cls-1" d="M243.69,0c1.09,3.16,2.34,6.27,3.24,9.48,5.93,21.26,19.33,35.27,40.4,41.89,2.54.8,5.16,1.36,7.65,2.29a31,31,0,0,1,4.45,2.48l0,1.5a59.76,59.76,0,0,1-6.58,2.52c-16.28,4.15-30.12,12-38.69,26.92-3.6,6.25-5.54,13.46-8.25,20.24-.76,1.92-1.56,3.82-2.34,5.74l-1.63.21c-1-2-2.24-4-2.82-6.15-2.65-9.74-6.27-18.92-12.87-26.78-9-10.66-20.59-16.61-33.77-20.1-2.3-.61-4.49-1.61-6.73-2.43L185.55,56a41.46,41.46,0,0,1,6.17-2.79c10-2.78,19.55-6.51,27.64-13.37,10.47-8.88,16.38-20.35,19.7-33.43A45.41,45.41,0,0,1,241.74,0Z"/><path class="cls-1" d="M425.77,370.72v31H60.42v-31Z"/></g></g></svg>